[img]http://thedoubleg.com/wp-content/uploads/2010/12/fair-game-movie-poster.jpg[/img]
 
::::::::::::::Enjoy:Another:Release:From:T0XiC::::::::::::::
 
File:: Fair.Game.2010.DVDSCR.XViD.AC3-T0XiC-iNK
Video Source::.. cheers bro ;)
Audio Source:: ....cheers bro ;)
Language::English
IMDB::http://www.imdb.com/title/tt0977855/
 
Plame's status as a CIA agent was revealed by White House officials allegedly out to discredit her husband..
 
Specs::
 
General
 
Format                           : AVI
Format/Info                      : Audio Video Interleave
File size                        : 1.37 GiB
Duration                         : 1h 47mn
Overall bit rate                 : 1 830 Kbps
Writing application              : VirtualDubMod 1.5.10.2 (build 2542/release)
Writing library                  : VirtualDub build 32661/release
 
Video
ID                               : 0
Format                           : MPEG-4 Visual
Format profile                   : Advanced Simple@L5
Format settings, BVOP            : Yes
Format settings, QPel            : No
Format settings, GMC             : No warppoints
Format settings, Matrix          : Default (MPEG)
Codec ID                         : XVID
Codec ID/Hint                    : XviD
Duration                         : 1h 47mn
Bit rate                         : 1 372 Kbps
Width                            : 720 pixels
Height                           : 304 pixels
Display aspect ratio             : 2.35:1
Frame rate                       : 23.976 fps
Color space                      : YUV
Chroma subsampling               : 4:2:0
Bit depth                        : 8 bits
Scan type                        : Progressive
Bits/(Pixel*Frame)               : 0.262
Stream size                      : 1.03 GiB (75%)
Writing library                  : XviD 1.2.0.dev47 (UTC 2006-11-01)
 
Audio
ID                               : 1
Format                           : AC-3
Format/Info                      : Audio Coding 3
Mode extension                   : CM (complete main)
Codec ID                         : 2000
Duration                         : 1h 47mn
Bit rate mode                    : Constant
Bit rate                         : 448 Kbps
Channel(s)                       : 6 channels
Channel positions                : Front: L C R, Side: L R, LFE
Sampling rate                    : 48.0 KHz
Bit depth                        : 16 bits
Stream size                      : 344 MiB (24%)
Alignment                        : Split accross interleaves
Interleave, duration             : 42 ms (1.00 video frame)
Interleave, preload duration     : 500 ms
 
 
 
 
 
 
NOTES:: As you can tell its not the best quality screener ever, but its still very watchable imo... if you can't wait, we will probably be doing a v2 sometime in the near future...
make sure you check sample, enjoy :)
 
 
::Why Complain? Whats Free Is Free::
 
::We are always looking for friends with unreleased DVD's, Screeners, R5's, Audio, Cams, Silvers,
...and any other good sources you may have to offer - contact us: t0xicreleases@hushmail.com
 
::::::::::::::::::::::::::::::::::::   Respect To   :::::::::::::::::::::::::::::::::::::
::IMAGiNE,FLAWL3SS,Hive-CM8,DiGiTALiNK,Tranz,Vik,OneTwo,Joey,bob,& our friends on utn and PA::
                       "and to all of you who support us, Thank-You"


Screenshots:

 
http://noob.hu/2011/01/28/bscap0025.jpg
 
http://noob.hu/2011/01/28/bscap0026.jpg
 
http://noob.hu/2011/01/28/bscap0027.jpg


ENJOY!